<mxfile host="app.diagrams.net" modified="2022-07-19T13:09:16.687Z" agent="5.0 (Windows NT 10.0; Win64; x64) AppleWebKit/537.36 (KHTML, like Gecko) Chrome/103.0.5060.114 Safari/537.36 Edg/103.0.1264.49" etag="IE_JcwZrXJdK27CSexMr" version="20.0.3" type="github">
  <diagram id="cp2CzAZKEZPghFZQ-joy" name="第 1 页">
    <mxGraphModel dx="1497" dy="801" grid="1" gridSize="10" guides="1" tooltips="1" connect="1" arrows="1" fold="1" page="1" pageScale="1" pageWidth="1200" pageHeight="1920" math="0" shadow="0">
      <root>
        <mxCell id="0" />
        <mxCell id="1" parent="0" />
        <mxCell id="iZZFebuZpYIs87GABAeR-6" value="" style="rounded=1;whiteSpace=wrap;html=1;fontFamily=Tahoma;fontSize=18;" vertex="1" parent="1">
          <mxGeometry x="40" y="10" width="790" height="580" as="geometry" />
        </mxCell>
        <mxCell id="iZZFebuZpYIs87GABAeR-1" value="&lt;font style=&quot;font-size: 18px;&quot;&gt;rcnn 311&lt;br&gt;self.proposal_generator&lt;/font&gt;" style="rounded=1;whiteSpace=wrap;html=1;fontFamily=Tahoma;fontStyle=1;" vertex="1" parent="1">
          <mxGeometry x="295" y="100" width="280" height="60" as="geometry" />
        </mxCell>
        <mxCell id="iZZFebuZpYIs87GABAeR-2" value="&lt;font style=&quot;font-size: 18px;&quot;&gt;ubteacher modeling rpn.py 61&lt;br&gt;proposals = self.predict_proposals&lt;/font&gt;" style="rounded=1;whiteSpace=wrap;html=1;fontFamily=Tahoma;fontStyle=1;" vertex="1" parent="1">
          <mxGeometry x="240" y="190" width="390" height="60" as="geometry" />
        </mxCell>
        <mxCell id="iZZFebuZpYIs87GABAeR-3" value="&lt;font style=&quot;font-size: 18px;&quot;&gt;d2 modeling proposal_generator rpn.py 504&lt;br&gt;find_top_rpn_proposals&lt;/font&gt;" style="rounded=1;whiteSpace=wrap;html=1;fontFamily=Tahoma;fontStyle=1;" vertex="1" parent="1">
          <mxGeometry x="202.5" y="290" width="465" height="60" as="geometry" />
        </mxCell>
        <mxCell id="iZZFebuZpYIs87GABAeR-4" value="&lt;font style=&quot;font-size: 18px;&quot;&gt;d2 modeling proposal_generator prpposal_utils.py 122&lt;br&gt;batched_nms&lt;br&gt;先计算损失，再NMS&lt;br&gt;这里的NMS有点特殊，RPN的分数是直接使用未激活的&lt;br&gt;RPN使用原本的NMS，但是ROI的使用自定义的NMS&lt;br&gt;还有一点需要强调，RPN 计算损失的时候没有NMS 而是对带0和1标签的样本&lt;br&gt;进行了损失的计算&lt;br&gt;&lt;/font&gt;" style="rounded=1;whiteSpace=wrap;html=1;fontFamily=Tahoma;fontStyle=1;" vertex="1" parent="1">
          <mxGeometry x="110" y="400" width="673.75" height="160" as="geometry" />
        </mxCell>
        <mxCell id="iZZFebuZpYIs87GABAeR-7" value="RPN" style="text;html=1;strokeColor=none;fillColor=none;align=center;verticalAlign=middle;whiteSpace=wrap;rounded=0;fontFamily=Tahoma;fontSize=27;fontStyle=1" vertex="1" parent="1">
          <mxGeometry x="405" y="40" width="60" height="30" as="geometry" />
        </mxCell>
        <mxCell id="iZZFebuZpYIs87GABAeR-8" value="" style="rounded=1;whiteSpace=wrap;html=1;fontFamily=Tahoma;fontSize=18;" vertex="1" parent="1">
          <mxGeometry x="20" y="620" width="790" height="1390" as="geometry" />
        </mxCell>
        <mxCell id="iZZFebuZpYIs87GABAeR-9" value="&lt;span style=&quot;font-size: 18px;&quot;&gt;ubteacher modeling roi_heads&amp;nbsp;&lt;br&gt;输入2000个经过NMS之后的proposals&lt;/span&gt;" style="rounded=1;whiteSpace=wrap;html=1;fontFamily=Tahoma;fontStyle=1;" vertex="1" parent="1">
          <mxGeometry x="265" y="701" width="335" height="100" as="geometry" />
        </mxCell>
        <mxCell id="iZZFebuZpYIs87GABAeR-10" value="&lt;span style=&quot;font-size: 18px;&quot;&gt;ubteacher modeling roi_heads 83行&lt;/span&gt;&lt;span style=&quot;font-size: 18px;&quot;&gt;&lt;br&gt;label_and_sample_proposals&lt;br&gt;对2000个proposals 取样512个&lt;br&gt;128个正样本 384个负样本&lt;br&gt;&lt;/span&gt;" style="rounded=1;whiteSpace=wrap;html=1;fontFamily=Tahoma;fontStyle=1;" vertex="1" parent="1">
          <mxGeometry x="240" y="821" width="390" height="100" as="geometry" />
        </mxCell>
        <mxCell id="iZZFebuZpYIs87GABAeR-13" value="ROI" style="text;html=1;strokeColor=none;fillColor=none;align=center;verticalAlign=middle;whiteSpace=wrap;rounded=0;fontFamily=Tahoma;fontSize=27;fontStyle=1" vertex="1" parent="1">
          <mxGeometry x="405" y="640" width="60" height="30" as="geometry" />
        </mxCell>
        <mxCell id="iZZFebuZpYIs87GABAeR-14" value="&lt;span style=&quot;font-size: 18px;&quot;&gt;ubteacher modeling roi_heads 164行&lt;/span&gt;&lt;br&gt;&lt;span style=&quot;font-size: 18px;&quot;&gt;self.proposal_matcher(match_quality_matrix)&lt;br&gt;计算和Ground truth IOU 值大于0.5的作为正样本&lt;br&gt;&lt;font color=&quot;#ff3333&quot;&gt;RPN 和 ROI 都有采样的做法&lt;br&gt;但是RPN是阈值设为0.7 计算损失&lt;br&gt;ROI 是设置0.5作为阈值&lt;br&gt;&lt;/font&gt;返回的参数分别包括IOU最大的ID，以及正负样本的标签&lt;br&gt;&lt;/span&gt;" style="rounded=1;whiteSpace=wrap;html=1;fontFamily=Tahoma;fontStyle=1;" vertex="1" parent="1">
          <mxGeometry x="112.49999999999999" y="951" width="639.99" height="169" as="geometry" />
        </mxCell>
        <mxCell id="iZZFebuZpYIs87GABAeR-15" value="&lt;span style=&quot;font-size: 18px;&quot;&gt;ubteacher modeling roi_heads 167行&lt;/span&gt;&lt;br&gt;&lt;span style=&quot;font-size: 18px;&quot;&gt;self._sample_proposals()&lt;br&gt;从正样本中挑选128个作为正样本&lt;/span&gt;&lt;br&gt;&lt;span style=&quot;font-size: 18px;&quot;&gt;从负样本中挑选384个作为负样本&lt;/span&gt;" style="rounded=1;whiteSpace=wrap;html=1;fontFamily=Tahoma;fontStyle=1;" vertex="1" parent="1">
          <mxGeometry x="202.5" y="1140" width="470" height="120" as="geometry" />
        </mxCell>
        <mxCell id="iZZFebuZpYIs87GABAeR-16" value="&lt;span style=&quot;font-size: 18px;&quot;&gt;ubteacher modeling roi_heads 180行&lt;/span&gt;&lt;br&gt;&lt;span style=&quot;font-size: 18px;&quot;&gt;proposals_per_image.set&lt;br&gt;将gt_boxes 加到proposal中去&lt;/span&gt;" style="rounded=1;whiteSpace=wrap;html=1;fontFamily=Tahoma;fontStyle=1;" vertex="1" parent="1">
          <mxGeometry x="200" y="1320" width="470" height="120" as="geometry" />
        </mxCell>
      </root>
    </mxGraphModel>
  </diagram>
</mxfile>
